<?xml version="1.0" encoding="utf-8"?>
<!DOCTYPE svg PUBLIC "-//W3C//DTD SVG 1.1//EN" "http://www.w3.org/Graphics/SVG/1.1/DTD/svg11.dtd">
<svg version="1.1" xmlns="http://www.w3.org/2000/svg" xmlns:xlink="http://www.w3.org/1999/xlink" x="0px" y="0px" width="2048px"
	 height="831.083px" viewBox="0 0 2048 831.083" enable-background="new 0 0 2048 831.083" xml:space="preserve">
<g id="ACM">
	<radialGradient id="SVGID_1_" cx="266.4707" cy="431.6904" r="254.8682" gradientUnits="userSpaceOnUse">
		<stop  offset="0" style="stop-color:#FFFFFF"/>
		<stop  offset="1" style="stop-color:#000000"/>
	</radialGradient>
	
		<line fill="url(#SVGID_1_)" stroke="#D90000" stroke-width="150" stroke-linecap="round" stroke-miterlimit="10" x1="85.588" y1="743.455" x2="447.353" y2="119.926"/>
	<radialGradient id="SVGID_2_" cx="629.7061" cy="431.6904" r="255.3915" gradientUnits="userSpaceOnUse">
		<stop  offset="0" style="stop-color:#FFFFFF"/>
		<stop  offset="1" style="stop-color:#000000"/>
	</radialGradient>
	
		<line fill="url(#SVGID_2_)" stroke="#D90000" stroke-width="150" stroke-linecap="round" stroke-miterlimit="10" x1="447.353" y1="119.926" x2="812.059" y2="743.455"/>
	<path fill="none" stroke="#D90000" stroke-width="150" stroke-linecap="round" stroke-miterlimit="10" d="M1214,743.455
		c-172.183,0-311.765-139.582-311.765-311.765S1041.817,119.926,1214,119.926"/>
	
		<line fill="none" stroke="#D90000" stroke-width="150" stroke-linecap="round" stroke-miterlimit="10" x1="1456" y1="734.926" x2="1456" y2="110.926"/>
	
		<line fill="none" stroke="#D90000" stroke-width="150" stroke-linecap="round" stroke-miterlimit="10" x1="1456" y1="110.926" x2="1709.146" y2="364.072"/>
	
		<line fill="none" stroke="#D90000" stroke-width="150" stroke-linecap="round" stroke-miterlimit="10" x1="1962" y1="734.926" x2="1962" y2="110.926"/>
	
		<line fill="none" stroke="#D90000" stroke-width="150" stroke-linecap="round" stroke-miterlimit="10" x1="1962.146" y1="110.926" x2="1709" y2="364.072"/>
	<radialGradient id="SVGID_3_" cx="447" cy="519.9258" r="128.6934" gradientUnits="userSpaceOnUse">
		<stop  offset="0" style="stop-color:#FFFFFF"/>
		<stop  offset="1" style="stop-color:#000000"/>
	</radialGradient>
	
		<line fill="url(#SVGID_3_)" stroke="#D90000" stroke-width="150" stroke-linecap="round" stroke-miterlimit="10" x1="265" y1="519.926" x2="629" y2="519.926"/>
</g>
<g id="Layer_2">
	<path fill="#FFFFFF" d="M288.577,196.929c-641.895,313.498,1536.959,275.315,1887.306,229.649
		C816.391,598.522-107.104,452.746-107.104,452.746l344.846-254.023L288.577,196.929z"/>
	<ellipse fill="#FFFFFF" cx="321.859" cy="218.732" rx="28.109" ry="21.487"/>
</g>
</svg>
