<?xml version="1.0" encoding="UTF-8" standalone="no"?>
<!-- Generator: Adobe Illustrator 16.0.0, SVG Export Plug-In . SVG Version: 6.00 Build 0)  -->

<svg
   xmlns:dc="http://purl.org/dc/elements/1.1/"
   xmlns:cc="http://creativecommons.org/ns#"
   xmlns:rdf="http://www.w3.org/1999/02/22-rdf-syntax-ns#"
   xmlns:svg="http://www.w3.org/2000/svg"
   xmlns="http://www.w3.org/2000/svg"
   xmlns:sodipodi="http://sodipodi.sourceforge.net/DTD/sodipodi-0.dtd"
   xmlns:inkscape="http://www.inkscape.org/namespaces/inkscape"
   version="1.1"
   id="Layer_1"
   x="0px"
   y="0px"
   width="1061px"
   height="197px"
   viewBox="0 0 1061 197"
   enable-background="new 0 0 1061 197"
   xml:space="preserve"
   inkscape:version="0.48.4 r9939"
   sodipodi:docname="ACM-logo_for_Print-EditableText.svg"><title
   id="title3048">ACM-logo_for_Print</title><metadata
   id="metadata57"><rdf:RDF><cc:Work
       rdf:about=""><dc:format>image/svg+xml</dc:format><dc:type
         rdf:resource="http://purl.org/dc/dcmitype/StillImage" /><dc:title>ACM-logo_for_Print</dc:title></cc:Work></rdf:RDF></metadata><defs
   id="defs55" /><sodipodi:namedview
   pagecolor="#ffffff"
   bordercolor="#666666"
   borderopacity="1"
   objecttolerance="10"
   gridtolerance="10"
   guidetolerance="10"
   inkscape:pageopacity="0"
   inkscape:pageshadow="2"
   inkscape:window-width="1600"
   inkscape:window-height="1137"
   id="namedview53"
   showgrid="false"
   inkscape:zoom="1.0782281"
   inkscape:cx="505.64568"
   inkscape:cy="160.23396"
   inkscape:window-x="-8"
   inkscape:window-y="-8"
   inkscape:window-maximized="1"
   inkscape:current-layer="Layer_1" />
<g
   id="g3">
	<polygon
   fill="#77787B"
   points="551.466,191.281 551.466,4.677 556.864,4.677 556.864,191.281 551.466,191.281  "
   id="polygon5" />
</g>
<g
   id="g7">
	<polygon
   fill="#77787B"
   points="616.973,191.281 616.973,4.688 622.367,4.688 622.367,191.281 616.973,191.281  "
   id="polygon9" />
</g>
<g
   id="g11">
	<g
   id="g13">
		<polygon
   fill="#77787B"
   points="494.113,133.246 494.113,127.818 680.754,127.818 680.754,133.246 494.113,133.246   "
   id="polygon15" />
	</g>
	<g
   id="g17">
		<polygon
   fill="#77787B"
   points="494.113,67.729 494.113,62.254 680.754,62.254 680.754,67.729 494.113,67.729   "
   id="polygon19" />
	</g>
</g>
<g
   id="g21">
	<path
   fill="#77787B"
   d="M498.354,164.133c0-12.57,10.169-22.766,22.752-22.766l0,0c12.551,0,22.74,10.195,22.74,22.766l0,0   c-0.015,12.588-10.247,22.742-22.74,22.742l0,0C508.531,186.875,498.367,176.721,498.354,164.133L498.354,164.133z    M505.039,164.133c0,8.938,7.163,16.035,16.066,16.035l0,0c8.88,0,16.041-7.097,16.041-16.035l0,0   c0-8.853-7.185-16.056-16.041-16.09l0,0C512.237,148.077,505.039,155.28,505.039,164.133L505.039,164.133z"
   id="path23" />
</g>
<g
   id="g25">
	<path
   fill="#77787B"
   d="M630.363,164.133c0-12.57,10.236-22.766,22.787-22.766l0,0c12.598,0,22.778,10.195,22.778,22.766l0,0   c0,12.61-10.181,22.742-22.778,22.742l0,0C640.6,186.875,630.419,176.743,630.363,164.133L630.363,164.133z M637.095,164.133   c0,8.934,7.164,16.035,16.056,16.035l0,0c8.938,0,16.107-7.102,16.107-16.035l0,0c0-8.853-7.216-16.056-16.107-16.056l0,0   C644.285,148.077,637.095,155.28,637.095,164.133L637.095,164.133z"
   id="path27" />
</g>
<g
   id="g29">
	<path
   fill="#77787B"
   d="M563.766,31.596c0-12.545,10.141-22.771,22.758-22.771l0,0c12.571,0,22.796,10.226,22.796,22.771l0,0   c0,12.59-10.225,22.781-22.796,22.781l0,0C573.906,54.377,563.766,44.186,563.766,31.596L563.766,31.596z M570.434,31.596   c0,8.895,7.158,16.123,16.09,16.123l0,0c8.871,0,16.096-7.229,16.096-16.123l0,0c0-8.844-7.225-16.068-16.096-16.102l0,0   C577.592,15.527,570.447,22.752,570.434,31.596L570.434,31.596z"
   id="path31" />
</g>
<g
   id="g33">
	<path
   fill="#77787B"
   d="M563.766,164.133c0-12.57,10.141-22.766,22.758-22.766l0,0c12.571,0,22.796,10.195,22.796,22.766l0,0   c-0.043,12.588-10.225,22.742-22.796,22.742l0,0C573.906,186.875,563.766,176.721,563.766,164.133L563.766,164.133z    M570.434,164.133c0,8.938,7.158,16.035,16.09,16.035l0,0c8.906,0,16.096-7.097,16.096-16.035l0,0   c0-8.853-7.225-16.056-16.096-16.056l0,0C577.592,148.077,570.447,155.248,570.434,164.133L570.434,164.133z"
   id="path35" />
</g>
<g
   id="g37">
	<path
   fill="#77787B"
   d="M630.363,98.786c0-12.644,10.236-22.806,22.787-22.806l0,0c12.598,0,22.778,10.162,22.778,22.806l0,0   c0,12.542-10.181,22.725-22.778,22.725l0,0C640.6,121.511,630.363,111.328,630.363,98.786L630.363,98.786z M637.095,98.786   c0,8.821,7.19,16.024,16.056,16.024l0,0c8.892,0,16.107-7.203,16.107-16.024l0,0c0-8.923-7.216-16.126-16.107-16.126l0,0   C644.285,82.66,637.095,89.863,637.095,98.786L637.095,98.786z"
   id="path39" />
</g>
<g
   id="g41">
	<path
   fill="#77787B"
   d="M589.104,106.945c-1.115,1.234-2.33,2.253-3.622,3.042c-1.347,0.722-2.699,1.097-3.963,1.097   c-1.479,0-2.881-0.411-4.283-1.299c-1.415-0.908-2.531-2.213-3.434-3.93c-0.799-1.807-1.271-3.771-1.271-5.908   c0-2.603,0.688-5.203,2.032-7.813c1.347-2.658,2.971-4.623,4.978-5.991c2.02-1.252,3.992-1.93,5.823-1.93   c1.41,0,2.798,0.409,4.081,1.13c1.332,0.784,2.457,1.872,3.408,3.38l0.779-3.738h4.427l-3.499,16.482   c-0.527,2.353-0.77,3.622-0.77,3.864c0,0.453,0.174,0.855,0.514,1.151c0.263,0.311,0.707,0.463,1.264,0.463   c0.859,0,1.936-0.514,3.38-1.492c1.935-1.306,3.4-3.07,4.484-5.309c1.11-2.158,1.652-4.465,1.652-6.837   c0-2.724-0.738-5.306-2.131-7.712c-1.39-2.385-3.493-4.279-6.304-5.738c-2.789-1.363-5.873-2.143-9.265-2.143   c-3.833,0-7.345,0.881-10.564,2.704c-3.157,1.798-5.657,4.398-7.405,7.76c-1.73,3.401-2.674,6.98-2.674,10.802   c0,4.039,0.943,7.502,2.674,10.44c1.748,2.892,4.294,5.062,7.634,6.457c3.305,1.399,6.996,2.1,10.979,2.1   c4.36,0,7.948-0.762,10.879-2.193c2.857-1.443,5.093-3.171,6.488-5.301h4.58c-0.895,1.769-2.318,3.517-4.4,5.301   c-2.02,1.809-4.422,3.269-7.274,4.234c-2.837,1.05-6.183,1.626-10.195,1.626c-3.646,0-7.011-0.495-10.091-1.395   c-3.104-0.968-5.688-2.384-7.894-4.271c-2.172-1.907-3.81-4.044-4.905-6.516c-1.391-3.065-2.077-6.444-2.077-10.054   c0-3.998,0.79-7.83,2.429-11.454c2.07-4.477,4.879-7.911,8.594-10.273c3.672-2.393,8.197-3.536,13.457-3.536   c4.047,0,7.756,0.784,10.988,2.476c3.276,1.69,5.866,4.133,7.762,7.424c1.554,2.9,2.394,6.004,2.394,9.331   c0,4.741-1.728,9.006-5.082,12.743c-2.976,3.301-6.224,4.964-9.819,4.964c-1.174,0-2.098-0.158-2.764-0.532   c-0.701-0.343-1.22-0.81-1.584-1.543C589.321,108.645,589.154,107.937,589.104,106.945z M577.162,100.243   c0,2.296,0.514,4.036,1.531,5.268c1.056,1.282,2.293,1.869,3.709,1.869c0.949,0,1.859-0.298,2.962-0.827   c0.966-0.559,1.958-1.33,2.866-2.44c0.924-1.093,1.736-2.438,2.34-4.165c0.527-1.629,0.862-3.301,0.862-4.998   c0-2.195-0.552-3.936-1.708-5.195c-1.015-1.262-2.402-1.884-4.025-1.884c-1.07,0-2.043,0.272-3.02,0.853   c-0.849,0.554-1.791,1.361-2.654,2.544c-0.899,1.212-1.561,2.649-2.102,4.351C577.35,97.266,577.162,98.88,577.162,100.243z"
   id="path43" />
</g>
<rect
   x="708.842"
   y="24.795"
   fill="none"
   width="382.055"
   height="161.198"
   id="rect45" />
<g
   transform="matrix(1 0 0 1 708.8418 171.5723)"
   style="font-size:205px;fill:#77787b;font-family:ArialMT"
   id="text47"><path
     d="m 112.10938,-146.74316 19.41894,0 0,84.782711 c -1.3e-4,14.747768 -1.66842,26.459182 -5.00488,35.134277 -3.33671,8.675148 -9.35925,15.732026 -18.06763,21.1706544 -8.708595,5.43863956 -20.1364,8.1579565 -34.283447,8.157959 C 60.425558,2.5024389 49.181266,0.13346341 40.439453,-4.6044922 31.697559,-9.3424386 25.458145,-16.199121 21.721191,-25.174561 17.984194,-34.14995 16.115707,-46.4119 16.115723,-61.960449 l 0,-84.782711 19.418945,0 0,84.682613 c -3.6e-5,12.745818 1.184452,22.138305 3.553467,28.17749 2.368936,6.039253 6.43957,10.69379 12.211914,13.963623 5.772241,3.269874 12.829119,4.904801 21.170654,4.904786 14.280512,1.5e-5 24.457097,-3.236473 30.529787,-9.709473 6.07248,-6.472951 9.10877,-18.918413 9.10889,-37.336426 z"
     style="font-size:205px;fill:#77787b;font-family:ArialMT"
     id="path3042" /><path
     d="m 167.26318,0 0,-146.74316 19.41895,0 0,146.74316 z"
     style="font-size:205px;fill:#77787b;font-family:ArialMT"
     id="path3044" /><path
     d="m 325.51758,-51.450195 19.41894,4.904785 c -4.07077,15.948924 -11.39457,28.110777 -21.97143,36.485596 -10.5771,8.3748385 -23.50636,12.5622529 -38.78784,12.5622554 -15.8155,-2.5e-6 -28.67803,-3.21980722 -38.58765,-9.6594238 -9.9097,-6.4396026 -17.45038,-15.7653576 -22.62207,-27.9772946 -5.17173,-12.211867 -7.75758,-25.324647 -7.75757,-39.338379 -1e-5,-15.281486 2.9195,-28.611144 8.75855,-39.989014 5.839,-11.37764 14.1471,-20.0194 24.92431,-25.92529 10.77713,-5.90562 22.63869,-8.8585 35.58472,-8.85865 14.68089,1.5e-4 27.02626,3.73713 37.03613,11.21094 10.00964,7.47409 16.9831,17.98433 20.92041,31.53076 l -19.11865,4.5044 c -3.40344,-10.67697 -8.34158,-18.45122 -14.81445,-23.32276 -6.47308,-4.87128 -14.61435,-7.30699 -24.42383,-7.30712 -11.27774,1.3e-4 -20.70359,2.70276 -28.27759,8.10791 -7.5741,5.40539 -12.89595,12.66246 -15.96558,21.77124 -3.06969,9.108976 -4.60452,18.501464 -4.60449,28.177486 -3e-5,12.478903 1.81841,23.372854 5.45532,32.681885 3.63685,9.309114 9.29236,16.265895 16.96656,20.870361 7.67409,4.604509 15.98219,6.906753 24.92431,6.906738 10.87719,1.5e-5 20.08617,-3.136376 27.62696,-9.409179 7.54057,-6.272757 12.64555,-15.58183 15.31494,-27.927246 z"
     style="font-size:205px;fill:#77787b;font-family:ArialMT"
     id="path3046" /></g>
<rect
   x="6.219"
   y="25.403"
   fill="none"
   width="468.781"
   height="147.472"
   id="rect49" />
<g
   transform="matrix(1 0 0 1 6.2192 172.1807)"
   style="font-size:205px;fill:#77787b;font-family:ArialMT"
   id="text51"><path
     d="m -0.30029297,0 56.35497997,-146.74316 20.920411,0 L 137.03369,0 l -22.12158,0 -17.1167,-44.443359 -61.359863,0 L 20.319824,0 z m 42.34130897,-60.258789 49.748535,0 -15.314942,-40.639651 c -4.671295,-12.34526 -8.141344,-22.48848 -10.410156,-30.42968 -1.868554,9.4093 -4.504456,18.75174 -7.907715,28.02734 z"
     style="font-size:205px;fill:#77787b;font-family:ArialMT"
     id="path3035" /><path
     d="m 257.45117,-51.450195 19.41895,4.904785 c -4.07078,15.948924 -11.39458,28.110777 -21.97144,36.485596 -10.57709,8.3748385 -23.50636,12.5622529 -38.78784,12.5622554 -15.81549,-2.5e-6 -28.67803,-3.21980722 -38.58765,-9.6594238 -9.9097,-6.4396026 -17.45038,-15.7653576 -22.62207,-27.9772946 -5.17172,-12.211867 -7.75758,-25.324647 -7.75757,-39.338379 -1e-5,-15.281486 2.91951,-28.611144 8.75855,-39.989014 5.839,-11.37764 14.1471,-20.0194 24.92432,-25.92529 10.77712,-5.90562 22.63868,-8.8585 35.58471,-8.85865 14.6809,1.5e-4 27.02626,3.73713 37.03614,11.21094 10.00963,7.47409 16.9831,17.98433 20.92041,31.53076 l -19.11866,4.5044 c -3.40343,-10.67697 -8.34158,-18.45122 -14.81445,-23.32276 -6.47308,-4.87128 -14.61435,-7.30699 -24.42383,-7.30712 -11.27773,1.3e-4 -20.70359,2.70276 -28.27759,8.10791 -7.57409,5.40539 -12.89595,12.66246 -15.96557,21.77124 -3.0697,9.108976 -4.60452,18.501464 -4.60449,28.177486 -3e-5,12.478903 1.8184,23.372854 5.45532,32.681885 3.63684,9.309114 9.29235,16.265895 16.96655,20.870361 7.67409,4.604509 15.98219,6.906753 24.92432,6.906738 10.87719,1.5e-5 20.08616,-3.136376 27.62695,-9.409179 7.54058,-6.272757 12.64555,-15.58183 15.31494,-27.927246 z"
     style="font-size:205px;fill:#77787b;font-family:ArialMT"
     id="path3037" /><path
     d="m 300.29297,0 0,-146.74316 29.22851,0 34.73389,103.901363 c 3.20304,9.67614 5.53865,16.91653 7.00684,21.721192 1.6682,-5.338516 4.27074,-13.179491 7.80761,-23.52295 l 35.13428,-102.099605 26.12549,0 0,146.74316 -18.71826,0 0,-122.81982 L 378.96973,0 361.45264,0 319.01123,-124.92188 319.01123,0 z"
     style="font-size:205px;fill:#77787b;font-family:ArialMT"
     id="path3039" /></g>
</svg>