<?xml version="1.0" encoding="UTF-8" standalone="no"?>
<!-- Created with Inkscape (http://www.inkscape.org/) -->

<svg
   xmlns:dc="http://purl.org/dc/elements/1.1/"
   xmlns:cc="http://creativecommons.org/ns#"
   xmlns:rdf="http://www.w3.org/1999/02/22-rdf-syntax-ns#"
   xmlns:svg="http://www.w3.org/2000/svg"
   xmlns="http://www.w3.org/2000/svg"
   xmlns:sodipodi="http://sodipodi.sourceforge.net/DTD/sodipodi-0.dtd"
   xmlns:inkscape="http://www.inkscape.org/namespaces/inkscape"
   width="1300"
   height="500"
   id="svg2"
   version="1.1"
   inkscape:version="0.48.4 r9939"
   sodipodi:docname="ACM-logo_for_Print-FullVector3.svg">
  <title
     id="title4234">ACM-logo_for_Print</title>
  <defs
     id="defs4">
    <linearGradient
       id="linearGradient6538">
      <stop
         id="stop6540"
         offset="0"
         style="stop-color:#0000ff;stop-opacity:1;" />
      <stop
         id="stop6542"
         offset="1"
         style="stop-color:#000000;stop-opacity:1;" />
    </linearGradient>
    <linearGradient
       id="linearGradient3234">
      <stop
         id="stop3236"
         offset="0"
         style="stop-color:#0000ff;stop-opacity:1;" />
      <stop
         id="stop3238"
         offset="1"
         style="stop-color:#000000;stop-opacity:1;" />
    </linearGradient>
    <linearGradient
       id="linearGradient3241">
      <stop
         id="stop3243"
         offset="0"
         style="stop-color:#0000ff;stop-opacity:1;" />
      <stop
         id="stop3245"
         offset="1"
         style="stop-color:#000000;stop-opacity:1;" />
    </linearGradient>
    <linearGradient
       id="linearGradient6522">
      <stop
         style="stop-color:#ff0000;stop-opacity:1;"
         offset="0"
         id="stop6524" />
      <stop
         style="stop-color:#000000;stop-opacity:1;"
         offset="1"
         id="stop6526" />
    </linearGradient>
    <linearGradient
       id="linearGradient3252">
      <stop
         style="stop-color:#ff0000;stop-opacity:1;"
         offset="0"
         id="stop3254" />
      <stop
         style="stop-color:#000000;stop-opacity:1;"
         offset="1"
         id="stop3256" />
    </linearGradient>
    <linearGradient
       id="linearGradient10456">
      <stop
         style="stop-color:#000000;stop-opacity:0;"
         offset="0"
         id="stop10458" />
      <stop
         id="stop10468"
         offset="0.25"
         style="stop-color:#000000;stop-opacity:1;" />
      <stop
         style="stop-color:#000000;stop-opacity:1;"
         offset="0.75"
         id="stop10470" />
      <stop
         style="stop-color:#000000;stop-opacity:0;"
         offset="1"
         id="stop10460" />
    </linearGradient>
    <linearGradient
       id="linearGradient3265">
      <stop
         style="stop-color:#000000;stop-opacity:0;"
         offset="0"
         id="stop3267" />
      <stop
         id="stop3269"
         offset="0.25"
         style="stop-color:#000000;stop-opacity:1;" />
      <stop
         style="stop-color:#000000;stop-opacity:1;"
         offset="0.75"
         id="stop3271" />
      <stop
         style="stop-color:#000000;stop-opacity:0;"
         offset="1"
         id="stop3273" />
    </linearGradient>
    <linearGradient
       id="linearGradient3276">
      <stop
         style="stop-color:#000000;stop-opacity:0;"
         offset="0"
         id="stop3278" />
      <stop
         id="stop3280"
         offset="0.25"
         style="stop-color:#000000;stop-opacity:1;" />
      <stop
         style="stop-color:#000000;stop-opacity:1;"
         offset="0.75"
         id="stop3282" />
      <stop
         style="stop-color:#000000;stop-opacity:0;"
         offset="1"
         id="stop3284" />
    </linearGradient>
    <linearGradient
       id="linearGradient3287">
      <stop
         style="stop-color:#000000;stop-opacity:0;"
         offset="0"
         id="stop3289" />
      <stop
         id="stop3291"
         offset="0.25"
         style="stop-color:#000000;stop-opacity:1;" />
      <stop
         style="stop-color:#000000;stop-opacity:1;"
         offset="0.75"
         id="stop3293" />
      <stop
         style="stop-color:#000000;stop-opacity:0;"
         offset="1"
         id="stop3295" />
    </linearGradient>
  </defs>
  <sodipodi:namedview
     id="base"
     pagecolor="#ffffff"
     bordercolor="#666666"
     borderopacity="1.0"
     inkscape:pageopacity="0.0"
     inkscape:pageshadow="2"
     inkscape:zoom="0.9899495"
     inkscape:cx="331.95377"
     inkscape:cy="162.44656"
     inkscape:document-units="px"
     inkscape:current-layer="layer1"
     showgrid="false"
     inkscape:window-width="1600"
     inkscape:window-height="837"
     inkscape:window-x="1592"
     inkscape:window-y="-8"
     inkscape:window-maximized="1"
     showguides="true"
     inkscape:guide-bbox="true" />
  <metadata
     id="metadata7">
    <rdf:RDF>
      <cc:Work
         rdf:about="">
        <dc:format>image/svg+xml</dc:format>
        <dc:type
           rdf:resource="http://purl.org/dc/dcmitype/StillImage" />
        <dc:title>ACM-logo_for_Print</dc:title>
      </cc:Work>
    </rdf:RDF>
  </metadata>
  <g
     inkscape:label="Layer 1"
     inkscape:groupmode="layer"
     id="layer1"
     transform="translate(0,-552.36218)">
    <rect
       style="fill:#ffffff;stroke:none"
       id="rect2434"
       width="583.61566"
       height="392.16019"
       x="4.6719532"
       y="603.58142" />
    <g
       transform="scale(1.0025597,0.99744681)"
       style="font-size:116.07745361px;font-style:normal;font-variant:normal;font-weight:normal;font-stretch:normal;text-align:center;line-height:125%;writing-mode:lr-tb;text-anchor:middle;fill:#000000;fill-opacity:1;stroke:none;font-family:Bitstream Vera Sans;-inkscape-font-specification:Bitstream Vera Sans"
       id="text3266">
      <path
         d="m 43.427986,624.5868 -15.529894,42.11209 31.116466,0 z m -6.461342,-11.27901 12.979363,0 32.250035,84.62092 -11.902473,0 -7.708269,-21.70784 -38.144593,0 -7.708268,21.70784 -12.0725087,0 z"
         style="line-height:125%;font-family:Bitstream Vera Sans;-inkscape-font-specification:Bitstream Vera Sans"
         id="path3048" />
      <path
         d="m 77.605088,764.92263 0,12.07251 c -3.854205,-3.58956 -7.963388,-6.27234 -12.327562,-8.04834 -4.364298,-1.77585 -9.002479,-2.66381 -13.914558,-2.66389 -9.67316,8e-5 -17.079136,2.9568 -22.21795,8.87018 -5.138867,5.91351 -7.708287,14.4625 -7.708268,25.647 -1.9e-5,11.14679 2.569401,19.67689 7.708268,25.59031 5.138814,5.91347 12.54479,8.87019 22.21795,8.87018 4.912079,10e-6 9.55026,-0.88795 13.914558,-2.66389 4.364174,-1.77591 8.473357,-4.45869 12.327562,-8.04833 l 0,11.95915 c -4.005348,2.72057 -8.24678,4.76099 -12.724311,6.12127 -4.477654,1.36028 -9.2103,2.04042 -14.19795,2.04042 -12.809363,0 -22.898116,-3.92025 -30.266289,-11.76077 -7.368208,-7.8405 -11.0523033,-18.54327 -11.0522968,-32.10834 -6.5e-6,-13.60277 3.6840888,-24.32444 11.0522968,-32.16502 7.368173,-7.84044 17.456926,-11.76069 30.266289,-11.76078 5.063221,9e-5 9.833652,0.67078 14.311307,2.01209 4.477531,1.34147 8.681178,3.35355 12.610954,6.03625 z"
         style="line-height:125%;font-family:Bitstream Vera Sans;-inkscape-font-specification:Bitstream Vera Sans"
         id="path3050" />
      <path
         d="m 4.7166088,903.50143 17.0602112,0 21.594488,57.5853 21.707844,-57.5853 17.060211,0 0,84.62091 -11.165653,0 0,-74.30544 -21.821201,58.03873 -11.505724,0 -21.821201,-58.03873 0,74.30544 -11.1089752,0 z"
         style="line-height:125%;font-family:Bitstream Vera Sans;-inkscape-font-specification:Bitstream Vera Sans"
         id="path3052" />
    </g>
    <g
       transform="scale(1.0114706,0.98865949)"
       style="font-size:116.07745361px;font-style:normal;font-variant:normal;font-weight:normal;font-stretch:normal;text-align:center;line-height:125%;writing-mode:lr-tb;text-anchor:middle;fill:#000000;fill-opacity:1;stroke:none;font-family:Arial;-inkscape-font-specification:Arial"
       id="text3270">
      <path
         d="m 562.67068,620.4813 10.99562,0 0,48.00664 c -7e-5,8.35065 -0.94471,14.98202 -2.83392,19.89414 -1.88935,4.91214 -5.2995,8.90796 -10.23046,11.98749 -4.93108,3.07953 -11.40186,4.61929 -19.41237,4.61929 -7.78387,0 -14.15074,-1.34139 -19.10063,-4.02417 -4.94994,-2.68277 -8.48289,-6.56524 -10.59887,-11.64742 -2.11601,-5.08215 -3.174,-12.02525 -3.174,-20.82933 l 0,-48.00664 10.99562,0 0,47.94996 c -2e-5,7.21709 0.67068,12.53541 2.01209,15.95499 1.34136,3.41961 3.64628,6.05516 6.91477,7.90664 3.26842,1.8515 7.26425,2.77725 11.98749,2.77724 8.08607,1e-5 13.84838,-1.83259 17.28692,-5.49781 3.43843,-3.66518 5.15768,-10.7122 5.15774,-21.14106 z"
         style=""
         id="path3058" />
      <path
         d="m 535.86178,848.66872 0,-83.0906 10.99562,0 0,83.0906 z"
         style=""
         id="path3060" />
      <path
         d="m 567.43167,964.63281 10.99562,2.77725 c -2.305,9.03078 -6.45197,15.9172 -12.44092,20.65929 -5.98908,4.7421 -13.31004,7.11314 -21.9629,7.11314 -8.95523,0 -16.2384,-1.82315 -21.84954,-5.46947 -5.61118,-3.6463 -9.88095,-8.92684 -12.80932,-15.84162 -2.9284,-6.91474 -4.39259,-14.33961 -4.39258,-22.27463 -1e-5,-8.65286 1.65311,-16.20053 4.95936,-22.64304 3.30623,-6.44238 8.01053,-11.33561 14.11293,-14.67971 6.10235,-3.34395 12.81874,-5.01596 20.14919,-5.01605 8.31278,9e-5 15.30312,2.11608 20.97102,6.34799 5.66778,4.23206 9.61637,10.18329 11.8458,17.85371 l -10.82558,2.55053 c -1.92714,-6.04564 -4.72327,-10.44766 -8.38841,-13.20608 -3.66526,-2.75828 -8.27511,-4.13745 -13.82954,-4.13753 -6.38581,8e-5 -11.72303,1.5304 -16.01166,4.59096 -4.2887,3.0607 -7.3021,7.16989 -9.04022,12.32756 -1.73815,5.15779 -2.60722,10.47611 -2.60721,15.95498 -1e-5,7.06595 1.02965,13.23445 3.08898,18.50551 2.05929,5.27112 5.26162,9.21027 9.607,11.81746 4.34531,2.60722 9.04962,3.91082 14.11293,3.91081 6.15901,10e-6 11.37342,-1.77591 15.64325,-5.32777 4.26971,-3.55183 7.16031,-8.82292 8.6718,-15.81329 z"
         style=""
         id="path3062" />
    </g>
    <path
       style="fill:none;stroke:#000000;stroke-width:10.80000019;stroke-linecap:round;stroke-linejoin:round;stroke-miterlimit:4;stroke-opacity:1;stroke-dasharray:none"
       d="m 628.31488,61.593795 0,366.685375"
       id="path3456"
       inkscape:connector-curvature="0"
       transform="translate(0,552.36218)" />
    <g
       transform="matrix(1.9323102,0,0,1.9323102,-611.84294,431.33551)"
       style="font-size:40px;font-style:normal;font-weight:normal;line-height:125%;letter-spacing:0px;word-spacing:0px;fill:#000000;fill-opacity:1;stroke:none;font-family:Sans"
       id="flowRoot4226">
      <path
         d="m 669.146,93.960409 2.35156,0 13.04809,39.200681 -2.68823,0 -4.81592,-14.33667 -13.43945,0 -4.70483,14.33667 -2.63184,0 z m 1.17578,4.087891 -5.93531,18.31348 11.9834,0 z"
         style="font-size:56px;font-variant:normal;font-weight:300;font-stretch:normal;text-align:start;writing-mode:lr-tb;text-anchor:start;font-family:Advent Pro;-inkscape-font-specification:Advent Pro Light"
         id="path3065" />
      <path
         d="m 703.66064,106.0566 -0.8955,2.12769 c -1.41848,-0.96954 -3.17303,-1.46372 -5.26368,-1.48255 -2.09066,-0.0188 -3.80819,0.43838 -5.15258,1.37146 -1.34441,0.93313 -2.01661,2.18354 -2.0166,3.75122 -10e-6,1.53127 0.64399,2.69822 1.932,3.50086 1.288,0.80267 2.74405,1.44667 4.36817,1.932 1.62409,0.48537 3.24819,1.01743 4.87231,1.5962 1.62409,0.57879 2.99612,1.47486 4.11609,2.68823 1.11993,1.21339 1.67991,2.84661 1.67993,4.89966 -2e-5,2.05306 -0.83059,3.82642 -2.4917,5.32006 -1.66115,1.49366 -4.0879,2.24048 -7.28027,2.24048 -3.19239,0 -5.70317,-0.76534 -7.53235,-2.29602 -1.82919,-1.53067 -2.7808,-3.41654 -2.85486,-5.65759 l 2.40796,0 c 0.2233,1.7557 1.07238,3.12802 2.54724,4.11694 1.47485,0.98894 3.22969,1.4834 5.26453,1.4834 2.03481,0 3.78026,-0.46655 5.23633,-1.39966 1.45603,-0.9331 2.18406,-2.1929 2.18408,-3.77942 -2e-5,-1.58649 -0.54148,-2.84658 -1.62439,-3.78027 -1.08294,-0.93366 -2.42706,-1.65257 -4.03235,-2.15674 -1.60532,-0.50413 -3.21062,-1.0174 -4.81592,-1.53979 -1.60531,-0.52237 -3.02377,-1.30651 -4.25537,-2.35242 -1.45606,-1.23159 -2.18408,-2.77138 -2.18408,-4.61938 0,-1.84796 0.73714,-3.5746 2.21142,-5.17994 1.47428,-1.60527 3.91015,-2.40793 7.30762,-2.40795 1.15754,2e-5 2.25898,0.14016 3.30432,0.42041 1.04532,0.2803 1.79186,0.55089 2.23963,0.81176 z"
         style="font-size:56px;font-variant:normal;font-weight:300;font-stretch:normal;text-align:start;writing-mode:lr-tb;text-anchor:start;font-family:Advent Pro;-inkscape-font-specification:Advent Pro Light"
         id="path3067" />
      <path
         d="m 727.83252,106.0566 -0.89551,2.12769 c -1.41847,-0.96954 -3.17303,-1.46372 -5.26367,-1.48255 -2.09067,-0.0188 -3.8082,0.43838 -5.15259,1.37146 -1.3444,0.93313 -2.0166,2.18354 -2.0166,3.75122 0,1.53127 0.644,2.69822 1.93201,3.50086 1.28799,0.80267 2.74405,1.44667 4.36816,1.932 1.62409,0.48537 3.2482,1.01743 4.87232,1.5962 1.62408,0.57879 2.99611,1.47486 4.11608,2.68823 1.11994,1.21339 1.67991,2.84661 1.67994,4.89966 -3e-5,2.05306 -0.83059,3.82642 -2.4917,5.32006 -1.66115,1.49366 -4.08791,2.24048 -7.28028,2.24048 -3.19239,0 -5.70317,-0.76534 -7.53235,-2.29602 -1.82918,-1.53067 -2.7808,-3.41654 -2.85485,-5.65759 l 2.40796,0 c 0.2233,1.7557 1.07238,3.12802 2.54724,4.11694 1.47484,0.98894 3.22968,1.4834 5.26452,1.4834 2.03482,0 3.78026,-0.46655 5.23633,-1.39966 1.45604,-0.9331 2.18406,-2.1929 2.18408,-3.77942 -2e-5,-1.58649 -0.54148,-2.84658 -1.62439,-3.78027 -1.08294,-0.93366 -2.42705,-1.65257 -4.03235,-2.15674 -1.60531,-0.50413 -3.21062,-1.0174 -4.81591,-1.53979 -1.60532,-0.52237 -3.02377,-1.30651 -4.25537,-2.35242 -1.45606,-1.23159 -2.18409,-2.77138 -2.18409,-4.61938 0,-1.84796 0.73714,-3.5746 2.21143,-5.17994 1.47428,-1.60527 3.91015,-2.40793 7.30762,-2.40795 1.15754,2e-5 2.25897,0.14016 3.30432,0.42041 1.04531,0.2803 1.79185,0.55089 2.23962,0.81176 z"
         style="font-size:56px;font-variant:normal;font-weight:300;font-stretch:normal;text-align:start;writing-mode:lr-tb;text-anchor:start;font-family:Advent Pro;-inkscape-font-specification:Advent Pro Light"
         id="path3069" />
      <path
         d="m 736.10059,122.85763 0,-7.39307 c -10e-6,-3.54669 0.90547,-6.26255 2.71643,-8.14758 1.81094,-1.88499 4.37755,-2.82749 7.69983,-2.82752 3.32224,3e-5 5.89825,0.97985 7.72802,2.93946 1.82973,1.95965 2.74461,4.6382 2.74463,8.03564 l 0,7.39307 c -2e-5,3.13542 -0.85879,5.72994 -2.57629,7.78357 -1.71755,2.05363 -4.31236,3.08044 -7.78443,3.08044 -3.47209,0 -6.09481,-1.03621 -7.86816,-3.10864 -1.77336,-2.07243 -2.66004,-4.65755 -2.66003,-7.75537 z m 2.52075,-7.44776 0,7.83911 c -1e-5,2.38917 0.69982,4.35849 2.09949,5.90796 1.39964,1.54948 3.36896,2.32422 5.90795,2.32422 2.53897,0 4.48037,-0.76534 5.82422,-2.29602 1.34381,-1.53067 2.01573,-3.50939 2.01575,-5.93616 l 0,-7.83911 c -2e-5,-2.91209 -0.71865,-5.07765 -2.15588,-6.4967 -1.43728,-1.419 -3.35048,-2.12852 -5.73963,-2.12854 -2.38917,2e-5 -4.31177,0.70014 -5.76782,2.10034 -1.45606,1.40025 -2.18409,3.57522 -2.18408,6.5249 z"
         style="font-size:56px;font-variant:normal;font-weight:300;font-stretch:normal;text-align:start;writing-mode:lr-tb;text-anchor:start;font-family:Advent Pro;-inkscape-font-specification:Advent Pro Light"
         id="path3071" />
      <path
         d="m 778.1604,108.35348 c -2.16473,-0.97068 -4.08705,-1.45603 -5.76697,-1.45606 -1.67994,3e-5 -3.14539,0.2145 -4.39636,0.64343 -1.25098,0.42898 -2.31511,1.34357 -3.19238,2.74378 -0.87729,1.40025 -1.31593,3.16449 -1.31592,5.29272 l 0,8.11939 c -1e-5,5.22722 2.98673,7.84082 8.9602,7.84082 1.82974,0 3.82697,-0.26147 5.9917,-0.78443 l 0.56055,2.07129 c -2.38918,0.63461 -4.55446,0.95191 -6.49585,0.95191 -1.94142,0 -3.84522,-0.29851 -5.71142,-0.89551 -3.88282,-1.2692 -5.82423,-4.53564 -5.82422,-9.79932 l 0,-7.16919 c -10e-6,-2.65004 0.52237,-4.87115 1.56714,-6.66333 1.79214,-3.09893 4.74128,-4.64841 8.84741,-4.64843 2.46434,2e-5 4.96572,0.5976 7.50415,1.79272 z"
         style="font-size:56px;font-variant:normal;font-weight:300;font-stretch:normal;text-align:start;writing-mode:lr-tb;text-anchor:start;font-family:Advent Pro;-inkscape-font-specification:Advent Pro Light"
         id="path3073" />
      <path
         d="m 785.03906,105.1047 2.51905,0 0,28.05639 -2.51905,0 z m 0.19483,-9.098636 c -0.31674,-0.317834 -0.47511,-0.682132 -0.4751,-1.092896 -10e-6,-0.410687 0.15865,-0.765301 0.47595,-1.063843 0.3173,-0.298463 0.68131,-0.447714 1.09204,-0.447753 0.41072,3.9e-5 0.76534,0.14929 1.06384,0.447753 0.2985,0.298542 0.44775,0.653156 0.44776,1.063843 -10e-6,0.410764 -0.14926,0.774777 -0.44776,1.092041 -0.2985,0.317338 -0.65312,0.475989 -1.06384,0.475952 -0.41073,3.7e-5 -0.77503,-0.158329 -1.09289,-0.475097 z"
         style="font-size:56px;font-variant:normal;font-weight:300;font-stretch:normal;text-align:start;writing-mode:lr-tb;text-anchor:start;font-family:Advent Pro;-inkscape-font-specification:Advent Pro Light"
         id="path3076" />
      <path
         d="m 806.64917,133.72164 c -8.17693,0 -12.26538,-3.34163 -12.26538,-10.0249 l 0,-4.64844 c 0,-3.69595 1.3068,-6.17853 3.92041,-7.44775 1.34439,-0.63458 2.70702,-0.95189 4.08789,-0.95191 4.555,2e-5 8.23273,1.04535 11.0332,3.13599 -2e-5,-2.12824 -0.64402,-3.84548 -1.932,-5.15174 -1.28803,-1.3062 -3.64956,-1.95932 -7.0846,-1.95935 -0.0752,3e-5 -0.16863,3e-5 -0.28027,0 l 0.16748,-2.0166 c 3.02489,3e-5 5.26536,0.35493 6.72143,1.0647 0.78384,0.41018 1.47427,0.82062 2.07129,1.23132 0.59699,0.41075 1.06354,0.95222 1.39966,1.62439 0.33608,0.67223 0.61607,1.26012 0.83997,1.76367 0.22385,0.50361 0.37339,1.18492 0.44861,2.04395 0.11163,1.30682 0.16745,2.66945 0.16748,4.08789 l 0,16.68823 c -3.88284,0.3737 -6.98122,0.56055 -9.29517,0.56055 z m -9.80103,-14.50415 0,4.87231 c 0,1.79103 0.43864,3.26531 1.31592,4.42286 0.87727,1.15755 2.06274,1.92318 3.5564,2.29687 3.35985,0.89551 7.26146,0.97014 11.70483,0.22388 l 0,-15.17578 c -3.09897,-1.71808 -6.47763,-2.68879 -10.13598,-2.91211 -0.18686,2e-5 -0.35491,2e-5 -0.50415,0 -1.60532,2e-5 -2.99615,0.49448 -4.17249,1.4834 -1.17636,0.98895 -1.76453,2.58514 -1.76453,4.78857 z"
         style="font-size:56px;font-variant:normal;font-weight:300;font-stretch:normal;text-align:start;writing-mode:lr-tb;text-anchor:start;font-family:Advent Pro;-inkscape-font-specification:Advent Pro Light"
         id="path3078" />
      <path
         d="m 820.37061,93.960409 2.51904,0 0,11.144291 7.33667,0 -1.11939,2.40796 -6.21728,0 0,18.25708 c -10e-6,3.17301 1.38142,5.20727 4.14429,6.10278 l -0.72803,2.0166 c -2.09067,-0.59701 -3.60255,-1.54891 -4.53565,-2.85571 -0.9331,-1.3068 -1.39966,-3.06136 -1.39965,-5.26367 z"
         style="font-size:56px;font-variant:normal;font-weight:300;font-stretch:normal;text-align:start;writing-mode:lr-tb;text-anchor:start;font-family:Advent Pro;-inkscape-font-specification:Advent Pro Light"
         id="path3080" />
      <path
         d="m 836.11719,105.1047 2.51904,0 0,28.05639 -2.51904,0 z m 0.19482,-9.098636 c -0.31673,-0.317834 -0.4751,-0.682132 -0.4751,-1.092896 0,-0.410687 0.15865,-0.765301 0.47596,-1.063843 0.31729,-0.298463 0.68131,-0.447714 1.09204,-0.447753 0.41072,3.9e-5 0.76533,0.14929 1.06384,0.447753 0.2985,0.298542 0.44775,0.653156 0.44775,1.063843 0,0.410764 -0.14925,0.774777 -0.44775,1.092041 -0.29851,0.317338 -0.65312,0.475989 -1.06384,0.475952 -0.41073,3.7e-5 -0.77503,-0.158329 -1.0929,-0.475097 z"
         style="font-size:56px;font-variant:normal;font-weight:300;font-stretch:normal;text-align:start;writing-mode:lr-tb;text-anchor:start;font-family:Advent Pro;-inkscape-font-specification:Advent Pro Light"
         id="path3082" />
      <path
         d="m 846.02246,122.85763 0,-7.39307 c 0,-3.54669 0.90547,-6.26255 2.71643,-8.14758 1.81095,-1.88499 4.37756,-2.82749 7.69983,-2.82752 3.32225,3e-5 5.89826,0.97985 7.72803,2.93946 1.82973,1.95965 2.7446,4.6382 2.74463,8.03564 l 0,7.39307 c -3e-5,3.13542 -0.85879,5.72994 -2.5763,7.78357 -1.71755,2.05363 -4.31235,3.08044 -7.78442,3.08044 -3.4721,0 -6.09482,-1.03621 -7.86816,-3.10864 -1.77336,-2.07243 -2.66004,-4.65755 -2.66004,-7.75537 z m 2.52075,-7.44776 0,7.83911 c 0,2.38917 0.69983,4.35849 2.09949,5.90796 1.39965,1.54948 3.36897,2.32422 5.90796,2.32422 2.53896,0 4.48037,-0.76534 5.82422,-2.29602 1.34381,-1.53067 2.01572,-3.50939 2.01574,-5.93616 l 0,-7.83911 c -2e-5,-2.91209 -0.71864,-5.07765 -2.15588,-6.4967 -1.43727,-1.419 -3.35048,-2.12852 -5.73962,-2.12854 -2.38917,2e-5 -4.31178,0.70014 -5.76783,2.10034 -1.45606,1.40025 -2.18408,3.57522 -2.18408,6.5249 z"
         style="font-size:56px;font-variant:normal;font-weight:300;font-stretch:normal;text-align:start;writing-mode:lr-tb;text-anchor:start;font-family:Advent Pro;-inkscape-font-specification:Advent Pro Light"
         id="path3084" />
      <path
         d="m 882.875,106.95382 c -2.91212,2e-5 -5.54395,0.63463 -7.89551,1.90381 l 0,24.30346 -2.52075,0 0,-28.05639 2.52075,0 0,1.51245 c 2.09065,-1.30678 4.76008,-1.96018 8.0083,-1.96021 2.1271,3e-5 3.91869,0.35493 5.37476,1.0647 3.17413,1.45608 4.76121,4.14374 4.76123,8.06299 l 0,19.37646 -2.46436,0 0,-19.26367 c -2e-5,-2.01658 -0.56939,-3.61277 -1.70813,-4.78857 -1.13877,-1.17576 -2.5296,-1.85707 -4.17248,-2.04395 -0.63462,-0.074 -1.26922,-0.11106 -1.90381,-0.11108 z"
         style="font-size:56px;font-variant:normal;font-weight:300;font-stretch:normal;text-align:start;writing-mode:lr-tb;text-anchor:start;font-family:Advent Pro;-inkscape-font-specification:Advent Pro Light"
         id="path3086" />
      <path
         d="m 927.02148,93.569052 -0.39135,2.184082 c -0.48537,-0.07516 -0.95192,-0.112755 -1.39966,-0.112793 -1.64292,3.8e-5 -3.04314,0.504187 -4.20068,1.512451 -1.15756,1.008336 -1.73634,2.762892 -1.73633,5.263668 l 0,2.68824 7,0 -1.06299,2.40796 -5.93701,0 0,25.64843 -2.51905,0 0,-30.74463 c 0,-1.86617 0.3173,-3.471194 0.95191,-4.815059 0.6346,-1.343795 1.43725,-2.295983 2.40796,-2.856568 1.60529,-0.933066 3.2482,-1.399618 4.92871,-1.399658 0.67105,4e-5 1.32388,0.07466 1.95849,0.223877 z"
         style="font-size:56px;font-variant:normal;font-weight:300;font-stretch:normal;text-align:start;writing-mode:lr-tb;text-anchor:start;font-family:Advent Pro;-inkscape-font-specification:Advent Pro Light"
         id="path3088" />
      <path
         d="m 931.66309,122.85763 0,-7.39307 c -10e-6,-3.54669 0.90547,-6.26255 2.71643,-8.14758 1.81094,-1.88499 4.37755,-2.82749 7.69983,-2.82752 3.32224,3e-5 5.89825,0.97985 7.72802,2.93946 1.82973,1.95965 2.74461,4.6382 2.74463,8.03564 l 0,7.39307 c -2e-5,3.13542 -0.85879,5.72994 -2.57629,7.78357 -1.71755,2.05363 -4.31236,3.08044 -7.78443,3.08044 -3.47209,0 -6.09481,-1.03621 -7.86816,-3.10864 -1.77336,-2.07243 -2.66004,-4.65755 -2.66003,-7.75537 z m 2.52075,-7.44776 0,7.83911 c -1e-5,2.38917 0.69982,4.35849 2.09949,5.90796 1.39964,1.54948 3.36896,2.32422 5.90795,2.32422 2.53897,0 4.48037,-0.76534 5.82422,-2.29602 1.34381,-1.53067 2.01573,-3.50939 2.01575,-5.93616 l 0,-7.83911 c -2e-5,-2.91209 -0.71865,-5.07765 -2.15588,-6.4967 -1.43728,-1.419 -3.35048,-2.12852 -5.73963,-2.12854 -2.38917,2e-5 -4.31177,0.70014 -5.76782,2.10034 -1.45606,1.40025 -2.18409,3.57522 -2.18408,6.5249 z"
         style="font-size:56px;font-variant:normal;font-weight:300;font-stretch:normal;text-align:start;writing-mode:lr-tb;text-anchor:start;font-family:Advent Pro;-inkscape-font-specification:Advent Pro Light"
         id="path3090" />
      <path
         d="m 957.93188,105.1047 2.51905,0 -0.11109,2.24048 c 1.82975,-1.82973 4.29353,-2.74461 7.39136,-2.74463 1.26919,2e-5 2.66942,0.16807 4.20068,0.50415 l -0.67163,2.35156 c -1.15756,-0.41013 -2.32451,-0.61521 -3.50085,-0.61524 -1.17636,3e-5 -2.36154,0.18688 -3.55554,0.56055 -2.50196,0.70869 -3.75294,1.94029 -3.75293,3.69483 l 0,22.06469 -2.51905,0 z"
         style="font-size:56px;font-variant:normal;font-weight:300;font-stretch:normal;text-align:start;writing-mode:lr-tb;text-anchor:start;font-family:Advent Pro;-inkscape-font-specification:Advent Pro Light"
         id="path3092" />
      <path
         d="m 679.50586,201.87252 c -3.17304,1.23275 -6.1968,1.84912 -9.07129,1.84912 -0.59816,0 -1.50392,-0.0561 -2.71728,-0.16834 -1.21339,-0.11222 -2.5014,-0.53234 -3.86402,-1.26037 -1.36264,-0.72803 -2.46379,-1.88529 -3.30347,-3.4718 -0.83968,-1.5865 -1.25952,-3.55611 -1.25952,-5.90882 l 0,-17.97509 c 0,-2.83689 0.40133,-4.98337 1.20398,-6.43946 0.80265,-1.45602 2.02543,-2.68819 3.66834,-3.69653 1.67935,-0.93307 3.67658,-1.39962 5.9917,-1.39966 2.91209,4e-5 5.56272,0.61584 7.9519,1.84741 l -0.78442,1.79273 c -2.16588,-0.89661 -4.31236,-1.34494 -6.43946,-1.34497 -2.98731,3e-5 -5.24602,0.74686 -6.77612,2.24048 -0.63461,0.59704 -1.17607,1.45551 -1.62439,2.57544 -0.44833,1.11998 -0.67249,2.42678 -0.67248,3.92041 l 0,18.36816 c -1e-5,3.99447 1.47484,6.62631 4.42456,7.89551 1.15754,0.48535 2.73493,0.72803 4.73217,0.72802 1.99722,1e-5 4.65697,-0.55997 7.97925,-1.67993 z"
         style="font-size:56px;font-variant:normal;font-weight:300;font-stretch:normal;text-align:start;writing-mode:lr-tb;text-anchor:start;font-family:Advent Pro;-inkscape-font-specification:Advent Pro Light"
         id="path3094" />
      <path
         d="m 682.50684,192.85763 0,-7.39307 c -10e-6,-3.54669 0.90547,-6.26255 2.71643,-8.14758 1.81094,-1.88499 4.37755,-2.82749 7.69983,-2.82752 3.32224,3e-5 5.89825,0.97985 7.72802,2.93946 1.82973,1.95965 2.74461,4.6382 2.74463,8.03564 l 0,7.39307 c -2e-5,3.13542 -0.85879,5.72994 -2.57629,7.78357 -1.71755,2.05363 -4.31236,3.08044 -7.78443,3.08044 -3.47209,0 -6.09481,-1.03621 -7.86816,-3.10864 -1.77336,-2.07243 -2.66004,-4.65755 -2.66003,-7.75537 z m 2.52075,-7.44776 0,7.83911 c -1e-5,2.38917 0.69982,4.35849 2.09949,5.90796 1.39964,1.54948 3.36896,2.32422 5.90795,2.32422 2.53897,0 4.48037,-0.76534 5.82422,-2.29602 1.34381,-1.53067 2.01573,-3.50939 2.01575,-5.93616 l 0,-7.83911 c -2e-5,-2.91209 -0.71865,-5.07765 -2.15588,-6.4967 -1.43728,-1.419 -3.35048,-2.12852 -5.73963,-2.12854 -2.38917,2e-5 -4.31177,0.70014 -5.76782,2.10034 -1.45606,1.40025 -2.18409,3.57522 -2.18408,6.5249 z"
         style="font-size:56px;font-variant:normal;font-weight:300;font-stretch:normal;text-align:start;writing-mode:lr-tb;text-anchor:start;font-family:Advent Pro;-inkscape-font-specification:Advent Pro Light"
         id="path3096" />
      <path
         d="m 712.24658,178.85763 0,24.30346 -2.51904,0 0,-28.05639 2.51904,0 -0.22387,1.67993 c 2.65119,-1.38083 5.38613,-2.07126 8.20483,-2.07129 2.81867,3e-5 5.04946,0.91433 6.69238,2.74292 3.28464,-1.86618 6.346,-2.79929 9.18408,-2.79932 2.65004,3e-5 4.74041,0.85879 6.27112,2.5763 1.53064,1.71755 2.29598,3.90135 2.29602,6.55139 l 0,19.37646 -2.46435,0 0,-19.20727 c -4e-5,-1.79214 -0.37317,-3.26699 -1.11939,-4.42456 -1.19518,-1.79213 -3.09899,-2.68821 -5.71142,-2.68824 -1.68053,3e-5 -3.34223,0.39196 -4.98511,1.17579 l -2.35156,1.17578 c 0.56052,1.08352 0.84079,2.68882 0.84082,4.81592 l 0,19.15258 -2.46436,0 0,-19.76782 c -2e-5,-1.94138 -0.52297,-3.45326 -1.56885,-4.53564 -1.19402,-1.26918 -3.02321,-1.90379 -5.48755,-1.90381 -2.46436,2e-5 -4.83529,0.63463 -7.11279,1.90381 z"
         style="font-size:56px;font-variant:normal;font-weight:300;font-stretch:normal;text-align:start;writing-mode:lr-tb;text-anchor:start;font-family:Advent Pro;-inkscape-font-specification:Advent Pro Light"
         id="path3098" />
      <path
         d="m 750.96191,175.1047 2.51905,0 -0.22388,3.07959 c 1.00829,-1.15639 2.24047,-2.03338 3.69653,-2.63099 1.45605,-0.59754 2.8745,-0.89633 4.25537,-0.89636 3.5467,3e-5 6.24404,1.01745 8.09205,3.05225 1.84795,2.03485 2.77194,4.65757 2.77197,7.86816 l 0,7.72803 c -3e-5,3.39747 -0.96133,6.00139 -2.88391,7.81177 -1.92263,1.81038 -4.58238,2.71557 -7.97925,2.71557 -3.3969,0 -5.97319,-1.19458 -7.72888,-3.58374 l 0,14.67163 -2.51905,-0.9519 z m 18.59205,18.76123 0,-8.51245 c -3e-5,-2.05304 -0.44807,-3.74237 -1.34412,-5.068 -0.8961,-1.32558 -1.91351,-2.21225 -3.05225,-2.66003 -1.13877,-0.44773 -2.52931,-0.67161 -4.17163,-0.67163 -1.64234,2e-5 -3.23825,0.5412 -4.78772,1.62353 -1.54949,1.08238 -2.45525,2.81814 -2.71728,5.20728 l 0,10.24878 c -10e-6,2.50082 0.73742,4.37671 2.21228,5.62768 1.47484,1.25098 3.36953,1.87647 5.68408,1.87647 2.31452,0 4.25592,-0.644 5.82422,-1.93201 1.56825,-1.288 2.35239,-3.2012 2.35242,-5.73962 z"
         style="font-size:56px;font-variant:normal;font-weight:300;font-stretch:normal;text-align:start;writing-mode:lr-tb;text-anchor:start;font-family:Advent Pro;-inkscape-font-specification:Advent Pro Light"
         id="path3100" />
      <path
         d="m 776.06348,175.1047 2.51904,0 0,18.64843 c -1e-5,5.15203 2.66943,7.72803 8.0083,7.72803 2.38915,0 4.29324,-0.6252 5.71228,-1.87561 1.41901,-1.2504 2.12852,-3.10778 2.12854,-5.57214 l 0,-18.92871 2.51904,0 0,28.05639 -2.46435,0 0.16919,-3.30346 c -1.90497,2.61246 -4.5932,3.9187 -8.0647,3.9187 -7.01823,0 -10.52735,-3.43449 -10.52734,-10.30347 z"
         style="font-size:56px;font-variant:normal;font-weight:300;font-stretch:normal;text-align:start;writing-mode:lr-tb;text-anchor:start;font-family:Advent Pro;-inkscape-font-specification:Advent Pro Light"
         id="path3102" />
      <path
         d="m 801.55811,163.96041 2.51904,0 0,11.14429 7.33667,0 -1.11939,2.40796 -6.21728,0 0,18.25708 c -10e-6,3.17301 1.38142,5.20727 4.14429,6.10278 l -0.72803,2.0166 c -2.09067,-0.59701 -3.60255,-1.54891 -4.53565,-2.85571 -0.9331,-1.3068 -1.39966,-3.06136 -1.39965,-5.26367 z"
         style="font-size:56px;font-variant:normal;font-weight:300;font-stretch:normal;text-align:start;writing-mode:lr-tb;text-anchor:start;font-family:Advent Pro;-inkscape-font-specification:Advent Pro Light"
         id="path3104" />
      <path
         d="m 817.30469,175.1047 2.51904,0 0,28.05639 -2.51904,0 z m 0.19482,-9.09864 c -0.31673,-0.31783 -0.4751,-0.68213 -0.4751,-1.09289 0,-0.41069 0.15865,-0.7653 0.47596,-1.06384 0.31729,-0.29847 0.68131,-0.44772 1.09204,-0.44776 0.41072,4e-5 0.76533,0.14929 1.06384,0.44776 0.2985,0.29854 0.44775,0.65315 0.44775,1.06384 0,0.41076 -0.14925,0.77478 -0.44775,1.09204 -0.29851,0.31734 -0.65312,0.47599 -1.06384,0.47595 -0.41073,4e-5 -0.77503,-0.15833 -1.0929,-0.4751 z"
         style="font-size:56px;font-variant:normal;font-weight:300;font-stretch:normal;text-align:start;writing-mode:lr-tb;text-anchor:start;font-family:Advent Pro;-inkscape-font-specification:Advent Pro Light"
         id="path3106" />
      <path
         d="m 838.57812,176.95382 c -2.91212,2e-5 -5.54395,0.63463 -7.8955,1.90381 l 0,24.30346 -2.52075,0 0,-28.05639 2.52075,0 0,1.51245 c 2.09065,-1.30678 4.76008,-1.96018 8.0083,-1.96021 2.1271,3e-5 3.91868,0.35493 5.37475,1.0647 3.17413,1.45608 4.76121,4.14374 4.76123,8.06299 l 0,19.37646 -2.46435,0 0,-19.26367 c -2e-5,-2.01658 -0.5694,-3.61277 -1.70813,-4.78857 -1.13877,-1.17576 -2.5296,-1.85707 -4.17249,-2.04395 -0.63461,-0.074 -1.26922,-0.11106 -1.90381,-0.11108 z"
         style="font-size:56px;font-variant:normal;font-weight:300;font-stretch:normal;text-align:start;writing-mode:lr-tb;text-anchor:start;font-family:Advent Pro;-inkscape-font-specification:Advent Pro Light"
         id="path3108" />
      <path
         d="m 873.41064,178.46456 -0.16918,-3.35986 2.52075,0 0,31.64013 c -3e-5,2.23991 -0.46658,3.99446 -1.39966,5.26368 -0.93313,1.26919 -2.46381,2.23989 -4.59204,2.9121 l -0.67163,-1.9602 c 2.7617,-1.04477 4.14255,-3.13542 4.14258,-6.27197 l 0,-7.16748 c -1.75458,2.87451 -4.37702,4.31176 -7.86731,4.31176 -3.49033,0 -6.15036,-0.89607 -7.98011,-2.68823 -1.82975,-1.79215 -2.74463,-4.40518 -2.74463,-7.83911 l 0,-8.34497 c 0,-3.28465 0.9707,-5.83246 2.91211,-7.64343 1.9414,-1.81093 4.63875,-2.71641 8.09204,-2.71643 3.45328,2e-5 6.03897,1.28803 7.75708,3.86401 z m -16.24047,6.77612 0,8.56885 c -10e-6,2.46322 0.7001,4.35763 2.10034,5.68323 1.40022,1.3256 3.2576,1.9884 5.57214,1.9884 2.31452,0 4.29295,-0.6628 5.9353,-1.9884 1.64232,-1.3256 2.46348,-3.2576 2.46351,-5.79602 l 0,-10.35987 c -0.22333,-2.20228 -1.10033,-3.8261 -2.63099,-4.87146 -1.53069,-1.0453 -3.34136,-1.56796 -5.432,-1.56799 -2.09067,3e-5 -3.94805,0.64403 -5.57215,1.93201 -1.62411,1.28803 -2.43616,3.42511 -2.43615,6.41125 z"
         style="font-size:56px;font-variant:normal;font-weight:300;font-stretch:normal;text-align:start;writing-mode:lr-tb;text-anchor:start;font-family:Advent Pro;-inkscape-font-specification:Advent Pro Light"
         id="path3110" />
      <path
         d="m 659.96191,233.96041 2.51905,0 12.43286,35.33667 12.54394,-35.33667 2.52076,0 0,39.20068 -2.52076,0 0,-31.86401 -11.20068,31.86401 -2.68652,0 -11.0896,-31.86401 0,31.86401 -2.51905,0 z"
         style="font-size:56px;font-variant:normal;font-weight:300;font-stretch:normal;text-align:start;writing-mode:lr-tb;text-anchor:start;font-family:Advent Pro;-inkscape-font-specification:Advent Pro Light"
         id="path3112" />
      <path
         d="m 708.75854,273.72164 c -8.17692,0 -12.26538,-3.34163 -12.26538,-10.0249 l 0,-4.64844 c 0,-3.69595 1.3068,-6.17853 3.92041,-7.44775 1.3444,-0.63458 2.70703,-0.95189 4.08789,-0.95191 4.555,2e-5 8.23273,1.04535 11.03321,3.13599 -2e-5,-2.12824 -0.64402,-3.84548 -1.93201,-5.15174 -1.28802,-1.3062 -3.64955,-1.95932 -7.08459,-1.95935 -0.0752,3e-5 -0.16864,3e-5 -0.28028,0 l 0.16748,-2.0166 c 3.02489,3e-5 5.26537,0.35493 6.72144,1.0647 0.78383,0.41018 1.47426,0.82062 2.07129,1.23132 0.59698,0.41075 1.06353,0.95222 1.39966,1.62439 0.33607,0.67223 0.61606,1.26012 0.83996,1.76367 0.22386,0.50361 0.37339,1.18492 0.44861,2.04395 0.11163,1.30682 0.16746,2.66945 0.16748,4.08789 l 0,16.68823 c -3.88283,0.3737 -6.98122,0.56055 -9.29517,0.56055 z m -9.80102,-14.50415 0,4.87231 c -1e-5,1.79103 0.43863,3.26531 1.31592,4.42286 0.87727,1.15755 2.06273,1.92318 3.55639,2.29687 3.35985,0.89551 7.26146,0.97014 11.70484,0.22388 l 0,-15.17578 c -3.09898,-1.71808 -6.47764,-2.68879 -10.13599,-2.91211 -0.18686,2e-5 -0.35491,2e-5 -0.50415,0 -1.60531,2e-5 -2.99614,0.49448 -4.17248,1.4834 -1.17636,0.98895 -1.76454,2.58514 -1.76453,4.78857 z"
         style="font-size:56px;font-variant:normal;font-weight:300;font-stretch:normal;text-align:start;writing-mode:lr-tb;text-anchor:start;font-family:Advent Pro;-inkscape-font-specification:Advent Pro Light"
         id="path3114" />
      <path
         d="m 739.2229,248.35348 c -2.16473,-0.97068 -4.08705,-1.45603 -5.76697,-1.45606 -1.67994,3e-5 -3.14539,0.2145 -4.39636,0.64343 -1.25098,0.42898 -2.31511,1.34357 -3.19238,2.74378 -0.87729,1.40025 -1.31593,3.16449 -1.31592,5.29272 l 0,8.11939 c -1e-5,5.22722 2.98673,7.84082 8.9602,7.84082 1.82974,0 3.82697,-0.26147 5.9917,-0.78443 l 0.56055,2.07129 c -2.38918,0.63461 -4.55446,0.95191 -6.49585,0.95191 -1.94142,0 -3.84522,-0.29851 -5.71142,-0.89551 -3.88282,-1.2692 -5.82423,-4.53564 -5.82422,-9.79932 l 0,-7.16919 c -10e-6,-2.65004 0.52237,-4.87115 1.56714,-6.66333 1.79214,-3.09893 4.74128,-4.64841 8.84741,-4.64843 2.46434,2e-5 4.96572,0.5976 7.50415,1.79272 z"
         style="font-size:56px;font-variant:normal;font-weight:300;font-stretch:normal;text-align:start;writing-mode:lr-tb;text-anchor:start;font-family:Advent Pro;-inkscape-font-specification:Advent Pro Light"
         id="path3116" />
      <path
         d="m 747.55762,248.85763 0,24.30346 -2.52075,0 0,-39.20068 2.52075,0 0,12.65674 c 2.09065,-1.30678 4.76008,-1.96018 8.0083,-1.96021 2.1271,3e-5 3.91868,0.35493 5.37475,1.0647 3.17413,1.45608 4.76121,4.14374 4.76123,8.06299 l 0,19.37646 -2.46435,0 0,-19.26367 c -2e-5,-2.05304 -0.56,-3.65834 -1.67993,-4.81592 -1.34442,-1.45603 -3.41656,-2.18405 -6.21643,-2.18408 -2.7999,3e-5 -5.39442,0.65343 -7.78357,1.96021 z"
         style="font-size:56px;font-variant:normal;font-weight:300;font-stretch:normal;text-align:start;writing-mode:lr-tb;text-anchor:start;font-family:Advent Pro;-inkscape-font-specification:Advent Pro Light"
         id="path3118" />
      <path
         d="m 773.66406,245.1047 2.51905,0 0,28.05639 -2.51905,0 z m 0.19483,-9.09864 c -0.31674,-0.31783 -0.47511,-0.68213 -0.4751,-1.09289 -10e-6,-0.41069 0.15865,-0.7653 0.47595,-1.06384 0.3173,-0.29847 0.68131,-0.44772 1.09204,-0.44776 0.41072,4e-5 0.76534,0.14929 1.06384,0.44776 0.2985,0.29854 0.44775,0.65315 0.44776,1.06384 -10e-6,0.41076 -0.14926,0.77478 -0.44776,1.09204 -0.2985,0.31734 -0.65312,0.47599 -1.06384,0.47595 -0.41073,4e-5 -0.77503,-0.15833 -1.09289,-0.4751 z"
         style="font-size:56px;font-variant:normal;font-weight:300;font-stretch:normal;text-align:start;writing-mode:lr-tb;text-anchor:start;font-family:Advent Pro;-inkscape-font-specification:Advent Pro Light"
         id="path3120" />
      <path
         d="m 794.9375,246.95382 c -2.91212,2e-5 -5.54395,0.63463 -7.89551,1.90381 l 0,24.30346 -2.52075,0 0,-28.05639 2.52075,0 0,1.51245 c 2.09065,-1.30678 4.76008,-1.96018 8.0083,-1.96021 2.1271,3e-5 3.91869,0.35493 5.37476,1.0647 3.17413,1.45608 4.76121,4.14374 4.76123,8.06299 l 0,19.37646 -2.46436,0 0,-19.26367 c -2e-5,-2.01658 -0.56939,-3.61277 -1.70813,-4.78857 -1.13877,-1.17576 -2.5296,-1.85707 -4.17248,-2.04395 -0.63462,-0.074 -1.26922,-0.11106 -1.90381,-0.11108 z"
         style="font-size:56px;font-variant:normal;font-weight:300;font-stretch:normal;text-align:start;writing-mode:lr-tb;text-anchor:start;font-family:Advent Pro;-inkscape-font-specification:Advent Pro Light"
         id="path3122" />
      <path
         d="m 829.65723,271.20089 c -2.87453,1.75456 -5.87949,2.63183 -9.0149,2.63183 -6.49642,0 -9.74463,-2.72525 -9.74462,-8.17578 l 0,-11.47925 c -10e-6,-3.02488 0.9425,-5.37729 2.82751,-7.05725 1.885,-1.6799 4.37698,-2.51987 7.47595,-2.51989 3.09894,2e-5 5.5163,0.83088 7.25208,2.49255 1.73573,1.66173 2.60361,3.96686 2.60363,6.91541 l 0,6.72143 -17.64013,0.9519 0,4.0315 c -10e-6,2.12826 0.69071,3.64954 2.07214,4.56384 1.38142,0.91431 2.94941,1.37146 4.70398,1.37146 2.68879,0 5.50747,-0.80265 8.45606,-2.40796 z m -16.24048,-17.0232 0,5.0398 15.12109,-0.78442 0,-4.70313 c -2e-5,-2.50193 -0.76536,-4.28497 -2.29602,-5.34912 -1.53069,-1.0641 -3.31345,-1.59617 -5.34827,-1.59619 -2.03484,2e-5 -3.78968,0.59731 -5.26452,1.79187 -1.47486,1.1946 -2.21229,3.06167 -2.21228,5.60119 z"
         style="font-size:56px;font-variant:normal;font-weight:300;font-stretch:normal;text-align:start;writing-mode:lr-tb;text-anchor:start;font-family:Advent Pro;-inkscape-font-specification:Advent Pro Light"
         id="path3124" />
      <path
         d="m 836.63501,245.1047 2.51904,0 -0.11108,2.24048 c 1.82974,-1.82973 4.29353,-2.74461 7.39136,-2.74463 1.26919,2e-5 2.66941,0.16807 4.20068,0.50415 l -0.67163,2.35156 c -1.15757,-0.41013 -2.32452,-0.61521 -3.50086,-0.61524 -1.17636,3e-5 -2.36154,0.18688 -3.55554,0.56055 -2.50196,0.70869 -3.75293,1.94029 -3.75293,3.69483 l 0,22.06469 -2.51904,0 z"
         style="font-size:56px;font-variant:normal;font-weight:300;font-stretch:normal;text-align:start;writing-mode:lr-tb;text-anchor:start;font-family:Advent Pro;-inkscape-font-specification:Advent Pro Light"
         id="path3126" />
      <path
         d="m 853.88379,245.1047 2.40796,0 0,18.76123 c -10e-6,2.46322 0.68159,4.35763 2.0448,5.68322 1.36319,1.32561 3.28608,1.98841 5.76867,1.98841 2.48257,0 4.4892,-0.6628 6.0199,-1.98841 1.53066,-1.32559 2.296,-3.22 2.29602,-5.68322 l 0,-11.20069 c -2e-5,-3.69594 0.48533,-5.99224 1.45606,-6.88891 0.52178,-0.48533 1.21221,-0.87725 2.07129,-1.17578 l 0.72802,1.73632 c -1.19517,0.67223 -1.79274,2.09069 -1.79272,4.25538 l 0,25.9851 c -2e-5,2.2775 -0.44778,4.06937 -1.34326,5.37561 -0.89553,1.30623 -2.40741,2.29544 -4.53565,2.96765 l -0.67163,-1.9602 c 2.7617,-0.97071 4.14256,-3.06137 4.14258,-6.27197 l 0,-6.88721 c -1.49253,2.68766 -4.27362,4.03149 -8.34326,4.03149 -3.28582,0 -5.8154,-0.88667 -7.58875,-2.66003 -1.77336,-1.77335 -2.66003,-4.39579 -2.66003,-7.86731 z"
         style="font-size:56px;font-variant:normal;font-weight:300;font-stretch:normal;text-align:start;writing-mode:lr-tb;text-anchor:start;font-family:Advent Pro;-inkscape-font-specification:Advent Pro Light"
         id="path3128" />
    </g>
    <g
       transform="matrix(2.0610164,0,0,2.0610164,-911.66497,596.85727)"
       id="g3043"
       style="fill:#000000">
      <polygon
         style="fill:#000000"
         points="551.466,191.281 551.466,4.677 556.864,4.677 556.864,191.281 551.466,191.281 "
         id="polygon3045" />
    </g>
    <g
       transform="matrix(2.0610164,0,0,2.0610164,-911.66497,596.85727)"
       id="g3073"
       style="fill:#000000">
      <path
         style="fill:#000000"
         inkscape:connector-curvature="0"
         d="m 563.766,164.133 c 0,-12.57 10.141,-22.766 22.758,-22.766 l 0,0 c 12.571,0 22.796,10.195 22.796,22.766 l 0,0 c -0.043,12.588 -10.225,22.742 -22.796,22.742 l 0,0 c -12.618,0 -22.758,-10.154 -22.758,-22.742 l 0,0 z m 6.668,0 c 0,8.938 7.158,16.035 16.09,16.035 l 0,0 c 8.906,0 16.096,-7.097 16.096,-16.035 l 0,0 c 0,-8.853 -7.225,-16.056 -16.096,-16.056 l 0,0 c -8.932,0 -16.077,7.171 -16.09,16.056 l 0,0 z"
         id="path3075" />
    </g>
    <g
       transform="matrix(2.0610164,0,0,2.0610164,-911.66497,596.85727)"
       id="g3077"
       style="fill:#000000">
      <path
         style="fill:#000000"
         inkscape:connector-curvature="0"
         d="m 630.363,98.786 c 0,-12.644 10.236,-22.806 22.787,-22.806 l 0,0 c 12.598,0 22.778,10.162 22.778,22.806 l 0,0 c 0,12.542 -10.181,22.725 -22.778,22.725 l 0,0 c -12.55,0 -22.787,-10.183 -22.787,-22.725 l 0,0 z m 6.732,0 c 0,8.821 7.19,16.024 16.056,16.024 l 0,0 c 8.892,0 16.107,-7.203 16.107,-16.024 l 0,0 c 0,-8.923 -7.216,-16.126 -16.107,-16.126 l 0,0 c -8.866,0 -16.056,7.203 -16.056,16.126 l 0,0 z"
         id="path3079" />
    </g>
    <g
       transform="scale(0.97989346,1.0205191)"
       style="font-size:105.35812378px;font-style:normal;font-weight:normal;fill:#000000;fill-opacity:1;stroke:none;font-family:Bitstream Vera Sans"
       id="text3290">
      <path
         d="m 308.37747,800.71411 c -2.22931,2.57223 -4.72436,4.63858 -7.48516,6.19905 -2.7609,1.56048 -5.53032,2.34072 -8.30827,2.34072 -3.05241,0 -6.01903,-0.8917 -8.89988,-2.67511 -2.88092,-1.7834 -5.22163,-4.5271 -7.02216,-8.2311 -1.80058,-3.70398 -2.70085,-7.76809 -2.70083,-12.19232 -2e-5,-5.45308 1.39755,-10.91475 4.19272,-16.38504 2.79511,-5.47021 6.26761,-9.57719 10.41749,-12.32094 4.1498,-2.74364 8.17961,-4.11549 12.08943,-4.11555 2.98372,6e-5 5.83031,0.7803 8.53977,2.34072 2.70934,1.56053 5.04149,3.93555 6.99644,7.12505 l 1.74911,-7.97388 9.20855,0 -7.408,34.51919 c -1.02895,4.80149 -1.5434,7.45945 -1.54333,7.97388 -7e-5,0.92601 0.35147,1.7234 1.05461,2.39217 0.703,0.66878 1.55184,1.00317 2.5465,1.00316 1.81763,10e-6 4.20121,-1.04602 7.15077,-3.13811 3.90969,-2.74368 7.00493,-6.42195 9.28571,-11.03482 2.28061,-4.61282 3.42096,-9.37142 3.42106,-14.27582 -10e-5,-5.72743 -1.46626,-11.07764 -4.3985,-16.05065 -2.93242,-4.9729 -7.30518,-8.95126 -13.11832,-11.9351 -5.81329,-2.98371 -12.23526,-4.47559 -19.26593,-4.47566 -8.02537,7e-5 -15.35619,1.87778 -21.99248,5.63316 -6.63635,3.7555 -11.78079,9.14001 -15.43332,16.15354 -3.65256,7.01362 -5.47884,14.53307 -5.47882,22.55837 -2e-5,8.4026 1.82626,15.6391 5.47882,21.70953 3.65253,6.07044 8.93415,10.55467 15.84488,13.45271 6.91065,2.89802 14.56729,4.34704 22.96992,4.34705 8.98556,-10e-6 16.51358,-1.50905 22.58409,-4.5271 6.07035,-3.01808 10.6146,-6.68778 13.63277,-11.00911 l 9.31143,0 c -1.74921,3.60111 -4.75013,7.27081 -9.00277,11.00911 -4.25282,3.73827 -9.31152,6.69632 -15.17609,8.87415 -5.86474,2.1778 -12.92976,3.2667 -21.19509,3.26672 -7.61383,-2e-5 -14.63598,-0.97746 -21.06649,-2.93233 -6.43058,-1.9549 -11.9094,-4.8958 -16.43648,-8.82271 -4.52712,-3.92693 -7.9396,-8.44546 -10.23743,-13.5556 -2.8809,-6.48198 -4.32134,-13.47842 -4.32133,-20.98931 -1e-5,-8.36826 1.7148,-16.34213 5.14444,-23.92165 4.18412,-9.29423 10.12595,-16.4107 17.82548,-21.34942 7.69947,-4.93859 17.03662,-7.40792 28.01147,-7.408 8.50541,8e-5 16.1449,1.74062 22.91848,5.22161 6.77343,3.48114 12.11506,8.66844 16.02493,15.56193 3.32664,5.9333 4.99001,12.381 4.99011,19.34309 -1e-4,9.94595 -3.49832,18.77723 -10.49466,26.49387 -6.242,6.92785 -13.06695,10.39177 -20.47487,10.39177 -2.36651,0 -4.27852,-0.36011 -5.73605,-1.08034 -1.45765,-0.72022 -2.52941,-1.7491 -3.21527,-3.08666 -0.44592,-0.8574 -0.77173,-2.33214 -0.97745,-4.42422 z m -24.89909,-13.94143 c -3e-5,4.69861 1.1146,8.35115 3.34389,10.95766 2.22922,2.60652 4.78429,3.90978 7.66522,3.90977 1.92054,10e-6 3.94402,-0.57445 6.07043,-1.72339 2.12632,-1.14891 4.15837,-2.85515 6.09616,-5.11871 1.93768,-2.26354 3.52388,-5.13585 4.75861,-8.61694 1.2346,-3.48104 1.85194,-6.97069 1.852,-10.46893 -6e-5,-4.66426 -1.15756,-8.28251 -3.4725,-10.85477 -2.31505,-2.57218 -5.13592,-3.85828 -8.4626,-3.85833 -2.19501,5e-5 -4.26136,0.55736 -6.19905,1.67194 -1.93778,1.11467 -3.8155,2.90665 -5.63316,5.37594 -1.81774,2.46937 -3.27533,5.47029 -4.37278,9.00277 -1.09751,3.53254 -1.64625,6.77354 -1.64622,9.72299 z"
         style="font-weight:bold;font-family:Mukti Narrow"
         id="path3055" />
    </g>
    <path
       style="fill:none;stroke:#000000;stroke-width:11;stroke-linecap:round;stroke-linejoin:miter;stroke-opacity:1;stroke-miterlimit:4;stroke-dasharray:none"
       d="m 365.67522,53.512574 0,382.847816"
       id="path3821"
       inkscape:connector-curvature="0"
       transform="translate(0,552.36218)" />
    <path
       style="fill:none;stroke:#000000;stroke-width:11;stroke-linecap:round;stroke-linejoin:miter;stroke-miterlimit:4;stroke-opacity:1;stroke-dasharray:none"
       d="m 230,605.87436 0,382.84782"
       id="path3821-1"
       inkscape:connector-curvature="0" />
    <path
       style="fill:none;stroke:#000000;stroke-width:11;stroke-linecap:round;stroke-linejoin:miter;stroke-miterlimit:4;stroke-opacity:1;stroke-dasharray:none"
       d="m 489.28099,730.51538 -382.8477,-0.3064"
       id="path3821-1-7"
       inkscape:connector-curvature="0" />
    <path
       style="fill:none;stroke:#000000;stroke-width:11;stroke-linecap:round;stroke-linejoin:miter;stroke-miterlimit:4;stroke-opacity:1;stroke-dasharray:none"
       d="m 486.28099,866.22966 -382.8477,-0.3064"
       id="path3821-1-7-0"
       inkscape:connector-curvature="0" />
    <path
       sodipodi:type="arc"
       style="fill:#000000;fill-opacity:1;stroke-width:11;stroke-linecap:round;stroke-linejoin:round;stroke-miterlimit:4;stroke-dasharray:none"
       id="path3819"
       sodipodi:cx="296.42856"
       sodipodi:cy="110"
       sodipodi:rx="47.142857"
       sodipodi:ry="47.142857"
       d="m 343.57141,110 c 0,26.03628 -21.10657,47.14286 -47.14285,47.14286 -26.03628,0 -47.14286,-21.10658 -47.14286,-47.14286 0,-26.036281 21.10658,-47.142857 47.14286,-47.142857 26.03628,0 47.14285,21.106576 47.14285,47.142857 z"
       transform="matrix(0.99578183,0,0,0.9957288,2.0318277,552.45751)" />
    <path
       sodipodi:type="arc"
       style="fill:#000000;fill-opacity:1;stroke-width:11;stroke-linecap:round;stroke-linejoin:round;stroke-miterlimit:4;stroke-dasharray:none"
       id="path3819-1"
       sodipodi:cx="296.42856"
       sodipodi:cy="110"
       sodipodi:rx="47.142857"
       sodipodi:ry="47.142857"
       d="m 343.57141,110 c 0,26.03628 -21.10657,47.14286 -47.14285,47.14286 -26.03628,0 -47.14286,-21.10658 -47.14286,-47.14286 0,-26.036281 21.10658,-47.142857 47.14286,-47.142857 26.03628,0 47.14285,21.106576 47.14285,47.142857 z"
       transform="matrix(0.99578183,0,0,0.9957288,139.28983,825.53851)" />
    <path
       sodipodi:type="arc"
       style="fill:#000000;fill-opacity:1;stroke-width:11;stroke-linecap:round;stroke-linejoin:round;stroke-miterlimit:4;stroke-dasharray:none"
       id="path3819-1-7"
       sodipodi:cx="296.42856"
       sodipodi:cy="110"
       sodipodi:rx="47.142857"
       sodipodi:ry="47.142857"
       d="m 343.57141,110 c 0,26.03628 -21.10657,47.14286 -47.14285,47.14286 -26.03628,0 -47.14286,-21.10658 -47.14286,-47.14286 0,-26.036281 21.10658,-47.142857 47.14286,-47.142857 26.03628,0 47.14285,21.106576 47.14285,47.142857 z"
       transform="matrix(0.99578183,0,0,0.9957288,-132.78317,825.53851)" />
  </g>
</svg>
