<?xml version="1.0" encoding="UTF-8" standalone="no"?>
<svg
   xmlns:dc="http://purl.org/dc/elements/1.1/"
   xmlns:cc="http://creativecommons.org/ns#"
   xmlns:rdf="http://www.w3.org/1999/02/22-rdf-syntax-ns#"
   xmlns:svg="http://www.w3.org/2000/svg"
   xmlns="http://www.w3.org/2000/svg"
   xmlns:sodipodi="http://sodipodi.sourceforge.net/DTD/sodipodi-0.dtd"
   xmlns:inkscape="http://www.inkscape.org/namespaces/inkscape"
   version="1.1"
   x="0px"
   y="0px"
   width="2048px"
   height="831.083px"
   viewBox="0 0 2048 831.083"
   enable-background="new 0 0 2048 831.083"
   xml:space="preserve"
   id="svg2"
   inkscape:version="0.48.4 r9939"
   sodipodi:docname="ACM2-fullvector-outlined copy.svg"><title
   id="title3046">ACMLogo-2014</title><metadata
   id="metadata69"><rdf:RDF><cc:Work
       rdf:about=""><dc:format>image/svg+xml</dc:format><dc:type
         rdf:resource="http://purl.org/dc/dcmitype/StillImage" /><dc:title>ACMLogo-2014</dc:title></cc:Work></rdf:RDF></metadata><defs
   id="defs67" /><sodipodi:namedview
   pagecolor="#ffffff"
   bordercolor="#666666"
   borderopacity="1"
   objecttolerance="10"
   gridtolerance="10"
   guidetolerance="10"
   inkscape:pageopacity="0"
   inkscape:pageshadow="2"
   inkscape:window-width="640"
   inkscape:window-height="480"
   id="namedview65"
   showgrid="false"
   inkscape:zoom="0.13964844"
   inkscape:cx="1024"
   inkscape:cy="415.5415"
   inkscape:window-x="0"
   inkscape:window-y="0"
   inkscape:window-maximized="0"
   inkscape:current-layer="svg2" />
<g
   id="ACM">
	<g
   id="g5">
		<radialGradient
   id="SVGID_1_"
   cx="266.4707"
   cy="431.6904"
   r="254.8682"
   gradientUnits="userSpaceOnUse">
			<stop
   offset="0"
   style="stop-color:#FFFFFF"
   id="stop8" />
			<stop
   offset="1"
   style="stop-color:#000000"
   id="stop10" />
		</radialGradient>
		<line
   fill="url(#SVGID_1_)"
   x1="85.588"
   y1="743.455"
   x2="447.353"
   y2="119.926"
   id="line12" />
		<radialGradient
   id="SVGID_2_"
   cx="629.7061"
   cy="431.6904"
   r="255.3915"
   gradientUnits="userSpaceOnUse">
			<stop
   offset="0"
   style="stop-color:#FFFFFF"
   id="stop15" />
			<stop
   offset="1"
   style="stop-color:#000000"
   id="stop17" />
		</radialGradient>
		<line
   fill="url(#SVGID_2_)"
   x1="447.353"
   y1="119.926"
   x2="812.059"
   y2="743.455"
   id="line19" />
		<path
   fill="#D90000"
   d="M1709.146,439.072c-19.194,0-38.389-7.322-53.033-21.967l-253.146-253.146    c-29.289-29.29-29.289-76.777,0-106.066c29.289-29.289,76.777-29.289,106.066,0l253.146,253.146    c29.289,29.29,29.289,76.777,0,106.066C1747.535,431.75,1728.341,439.072,1709.146,439.072z"
   id="path21" />
		<path
   fill="#D90000"
   d="M1709,439.072c-19.194,0-38.389-7.322-53.033-21.967c-29.289-29.29-29.289-76.777,0-106.066    l253.146-253.146c29.289-29.289,76.777-29.289,106.066,0c29.289,29.29,29.289,76.777,0,106.066l-253.146,253.146    C1747.389,431.75,1728.194,439.072,1709,439.072z"
   id="path23" />
		<radialGradient
   id="SVGID_3_"
   cx="447"
   cy="519.9258"
   r="128.6934"
   gradientUnits="userSpaceOnUse">
			<stop
   offset="0"
   style="stop-color:#FFFFFF"
   id="stop26" />
			<stop
   offset="1"
   style="stop-color:#000000"
   id="stop28" />
		</radialGradient>
		<line
   fill="url(#SVGID_3_)"
   x1="265"
   y1="519.926"
   x2="629"
   y2="519.926"
   id="line30" />
	</g>
</g>
<g
   id="Layer_2">
	<g
   id="g33">
		<path
   fill="#D90000"
   d="M2037,438.684V110.926c0-41.421-33.579-75-75-75s-75,33.579-75,75v335.559    C1942.516,444.138,1993.005,441.501,2037,438.684z"
   id="path35" />
		<path
   fill="#D90000"
   d="M1887,459.165v275.761c0,41.421,33.579,75,75,75s75-33.579,75-75V443.229    C1986.332,448.972,1936.324,454.274,1887,459.165z"
   id="path37" />
	</g>
	<g
   id="g39">
		<path
   fill="#D90000"
   d="M150.859,481.506L20.716,705.817c-20.787,35.827-8.594,81.723,27.234,102.51    c11.848,6.874,24.79,10.141,37.567,10.141c25.862,0,51.029-13.395,64.942-37.375l166.669-287.267    C255.415,489.959,199.868,485.731,150.859,481.506z"
   id="path41" />
		<path
   fill="#D90000"
   d="M372.427,398.517l139.798-240.953c20.787-35.828,8.594-81.723-27.234-102.51    c-35.828-20.788-81.723-8.594-102.51,27.234l-67.026,115.524c2.058-0.367,4.2-0.567,6.404-0.567    c15.524,0,28.108,9.621,28.108,21.487c0,11.867-12.584,21.487-28.108,21.487c-10.579,0-19.788-4.469-24.585-11.071L223.76,355.854    C258.622,372.43,309.473,386.555,372.427,398.517z"
   id="path43" />
	</g>
	<path
   fill="#D90000"
   d="M198.409,485.433c-5.361,10.329-8.409,22.052-8.409,34.493c0,41.421,33.579,75,75,75h364   c41.421,0,75-33.579,75-75c0-3.711-0.28-7.354-0.801-10.921C499.574,505.465,329.398,495.785,198.409,485.433z"
   id="path45" />
	<g
   id="g47">
		<path
   fill="#D90000"
   d="M537.39,422.41c56.844,6.313,118.374,11.629,183.164,16.053L512.092,82.06    c-20.914-35.754-66.85-47.786-102.605-26.873c-35.754,20.913-47.786,66.851-26.873,102.605L537.39,422.41z"
   id="path49" />
		<path
   fill="#D90000"
   d="M762.306,509.844c-61.501-0.68-120.18-1.931-175.89-3.616l160.904,275.094    c13.952,23.853,39.037,37.146,64.81,37.146c12.86,0,25.894-3.312,37.796-10.272c35.754-20.913,47.786-66.851,26.873-102.605    L762.306,509.844z"
   id="path51" />
	</g>
	<g
   id="g53">
		<path
   fill="#D90000"
   d="M1214,668.455c-103.249,0-191.258-66.438-223.561-158.803c-53.396,0.669-105.155,0.887-155.202,0.718    c5.079,24.552,12.56,48.571,22.423,71.89c19.483,46.064,47.36,87.419,82.856,122.914c35.496,35.496,76.85,63.373,122.915,82.856    c47.73,20.188,98.39,30.425,150.569,30.425c41.422,0,75-33.578,75-75C1289,702.034,1255.422,668.455,1214,668.455z"
   id="path55" />
		<path
   fill="#D90000"
   d="M978.039,451.141c-0.524-6.416-0.804-12.9-0.804-19.45c0-130.552,106.212-236.765,236.765-236.765    c41.422,0,75-33.579,75-75s-33.578-75-75-75c-52.18,0-102.839,10.236-150.569,30.425c-46.064,19.483-87.419,47.36-122.915,82.856    s-63.373,76.85-82.856,122.915c-20.188,47.73-30.425,98.39-30.425,150.569c0,4.391,0.079,8.77,0.224,13.138    C876.531,447.355,926.905,449.447,978.039,451.141z"
   id="path57" />
	</g>
	<g
   id="g59">
		<path
   fill="#D90000"
   d="M1381,497.189v237.736c0,41.421,33.579,75,75,75s75-33.579,75-75V488.463    C1480.053,491.793,1430.042,494.689,1381,497.189z"
   id="path61" />
		<path
   fill="#D90000"
   d="M1531,455.927V110.926c0-41.421-33.579-75-75-75s-75,33.579-75,75v346.09    C1431.797,456.926,1481.97,456.55,1531,455.927z"
   id="path63" />
	</g>
</g>
</svg>